<?xml version="1.0" encoding="utf-8"?>
<!-- Generator: Adobe Illustrator 23.0.3, SVG Export Plug-In . SVG Version: 6.00 Build 0)  -->
<svg version="1.1" id="Calque_1" xmlns="http://www.w3.org/2000/svg" xmlns:xlink="http://www.w3.org/1999/xlink" x="0px" y="0px"
	 viewBox="0 0 554.3 244.5" style="enable-background:new 0 0 554.3 244.5;" xml:space="preserve">
<style type="text/css">
	.st0{fill:#75B62D;}
	.st1{fill:#EB5772;}
	.st2{fill:#77B72D;}
	.st3{fill:#F4E25A;}
	.st4{fill:#2FA8E1;}
	.st5{fill:none;stroke:#FFFFFF;stroke-width:8.58;stroke-miterlimit:10;}
</style>
<g>
	<g id="Calque_1-2">
		<path class="st0" d="M246.1,166.2c15.5-16,26.1-36.2,30.5-58c2.1-10.3,3.6-21.8,2-32.3c-1.2-8.2-9.3-19.1-17.3-10
			c-2.8,3.2-4.5,7.6-6.1,11.5c-2.5,5.9-4.7,11.9-6.6,18.1c-3.3,11.4-5.6,23-6.8,34.8c-1.3,12.5-1.8,25-1.4,37.5
			c0.3,10.5,0.4,23.1,9.2,30.3c17.3,14.1,37.1-6.8,45.9-20.8c2.6-4.1-0.8-17.9-5.4-10.7c-5.9,9.5-19.1,24.6-32.1,20.5
			c-8.1-2.5-9.7-9-10-16.7c-0.3-9.2-0.3-18.4,0.3-27.6c1.2-18.1,4.5-36.3,11.4-53.2c1.4-3.3,2.7-7.5,4.9-10.3c2-2.5,5.4-2.4,6.6,0.8
			c1,3,0.1,7.9-0.2,11.1c-0.4,4.2-1,8.4-1.9,12.6c-4.3,18.6-13.7,35.6-27.1,49.2C238.9,156.5,241.3,171.1,246.1,166.2L246.1,166.2z"
			/>
		<path class="st0" d="M294.8,175.1c15.5-3.7,31.6-13.4,37.6-29.1c3-7.9,2.8-18.6-4.2-24.5c-6.5-5.5-14.6-2.5-20.4,2.5
			c-12.8,11.1-16.7,29-16.5,45.2c0.1,13.4,4.8,36.2,23,34c16.3-1.9,28.8-18.5,36.2-31.7c1.6-3.4,1.6-7.3,0-10.7
			c-1.5-2.7-3.8-2.7-5.3,0c-6.1,10.9-15.9,23.5-28.6,26.9c-5.7,1.5-11.8-0.8-15.1-5.7c-3.6-5.3-3-14-2.3-20.1
			c0.5-6.5,2.7-12.8,6.4-18.3c3.8-5.3,13-14.4,19.8-8.2c2.4,2.2-0.2,4.2-2.2,6.8c-2.1,2.8-4.6,5.3-7.3,7.5
			c-6.2,4.9-13.4,8.4-21.1,10.2C289.3,161.3,290.3,176.2,294.8,175.1L294.8,175.1z"/>
		<path class="st0" d="M309.3,109.7c9.5-4,17.9-10.3,24.3-18.3c2.2-2.7,2.4-7.2,1.4-10.3c-0.7-2.1-3-5.5-5.2-2.7
			c-5.9,7.4-13.7,13.2-22.5,16.8C302.7,97,303.9,111.9,309.3,109.7L309.3,109.7z"/>
		<path class="st0" d="M394.7,142.1c-2.8-12.3-13.6-21.7-26.5-17.9c-12,3.5-16.9,18-20.3,28.8c-3.9,12.4-7.5,28.9,0.2,40.6
			s23.1,10.3,34.5,5.6c11.7-4.8,20-14,24.2-25.8c1-2.9,0.9-8-1.4-10.4c-2.5-2.5-4.3,0.4-5.2,2.7c-3.3,9-11,15.3-19.7,18.9
			c-8.4,3.5-27.8,6.5-29.3-7.1c-0.6-5.8,1.7-12.4,3.4-17.8c1.9-5.8,4.2-12.5,8.4-17c7.9-8.5,22.6-3.9,25.1,7
			c0.6,2.6,2.9,4.9,5.2,2.7C395.9,150,395.4,145,394.7,142.1L394.7,142.1z"/>
		<path class="st0" d="M438.4,124.5c-11.1,3.6-20.6,10.3-26.8,20.3c-6,9.6-11.7,21.1-11.3,32.6c0.3,9.3,3.3,21,13.4,24
			c10.7,3.2,23.6-3.6,31.4-10.5c8.1-7.1,14.3-17.5,15.5-28.4c0.3-2.6,0.1-5.3,0.2-7.9c0.1-6.6,1.6-13.3-0.1-19.9
			c-1.3-4.8-4-9.7-8.8-11.7c-5.8-2.3-12.3,1.4-16.1,5.8c-6.9,7.8-7.2,26,2.5,31.9c7.5,4.6,19.5,1.2,26.8-2.4
			c9.4-4.7,16.5-13.1,21.4-22.3c1.6-3.4,1.6-7.3,0-10.7c-1.5-2.7-3.9-2.8-5.4,0c-5.7,10.7-15.1,19-27.2,21.5
			c-3.1,0.6-15,2.6-15.4-2.9c-0.3-3.4,7.1-6.6,9.6-6.5c4.8,0.1,6,3.7,5.7,7.6c-0.3,3.6-0.6,7.2-0.6,10.9c0,0.9,0,1.7,0,2.6
			c0,1-0.3,2.2,0,0.5c-1.3,7-5.6,13.1-10.8,17.9c-6.1,5.6-14.7,9.9-23.1,10.1c-4,0.1-8-1.1-10.1-4.8c-0.5-0.9-0.9-1.9-1.1-2.9
			c-0.1-0.6-0.2-1.2-0.3-1.8c-0.3-2.5,0,1.1-0.1-0.6c0-3.9,1.8-7.3,3.5-10.8c2-4.3,4-8.7,6.9-12.4c5.6-7.3,13.5-11.8,22.1-14.6
			C444.9,137.5,444,122.6,438.4,124.5L438.4,124.5z"/>
		<path class="st0" d="M485.8,165.7c15.5-16,26.1-36.2,30.5-58c2.1-10.2,3.6-21.5,2.1-31.9c-0.6-4.3-2.2-9.3-5.8-12
			c-3.8-2.8-8.4-1.8-11.5,1.7c-2.8,3.2-4.5,7.7-6.1,11.5c-2.5,5.9-4.7,11.9-6.5,18.1c-3.3,11.4-5.6,23-6.8,34.8
			c-1.3,12.5-1.8,25-1.4,37.5c0.3,10.6,0.4,23.2,9.3,30.4c17.2,13.9,35.5-9.7,42.2-23.6c1.5-3.1,1.7-7.6,0-10.7
			c-1.5-2.6-4-2.9-5.3,0c-4.6,9.5-15.2,25.6-28,23.3c-8.6-1.6-10.3-9.3-10.6-16.8c-0.3-9.2-0.3-18.4,0.3-27.6
			c1.2-18.1,4.5-36.3,11.4-53.2c1.4-3.3,2.7-7.5,5-10.3s5.6-2.2,6.6,1.1c0.9,3.1,0.1,7.7-0.2,10.8c-0.4,4.2-1,8.4-1.9,12.6
			c-4.3,18.6-13.6,35.6-27.1,49.2C478.7,156,481,170.6,485.8,165.7L485.8,165.7z"/>
		<path class="st1" d="M121.2,23.9L55.7,193.4c-19.5-18.5-30.6-44.2-30.5-71.2C25.1,68.8,67.9,25.3,121.2,23.9"/>
		<path class="st2" d="M222.6,122.3c0,29.2-12.9,56.8-35.4,75.5l-66-173.8c0.9,0,1.8,0,2.6,0C178.3,23.9,222.5,67.9,222.6,122.3"/>
		<path class="st3" d="M187.2,197.7c-1.2,1-2.4,2-3.6,2.9L67.1,172.8c18.9-49.3,37.8-98.7,56.8-148L187.2,197.7z"/>
		<path class="st4" d="M183.6,200.6c-25.8,19.5-59.4,25.2-90.1,15.3c-14.1-4.6-27-12.3-37.8-22.5l16.2-19.6L183.6,200.6z"/>
		<polyline class="st5" points="56.7,202.5 123.7,25.1 186.5,197.6 67.4,172.8 		"/>
	</g>
</g>
</svg>
